<?xml version="1.0" encoding="UTF-8" standalone="no"?>
<svg version="1.1" xmlns="http://www.w3.org/2000/svg" xmlns:xlink="http://www.w3.org/1999/xlink" x="0px" y="0px"
	 viewBox="0 0 206.44835 226.77165" style="enable-background:new 0 0 206.44835 226.77165;" xml:space="preserve">
  <path
     d="M 191.35674,0 166.11218,28.20468 C 149.52177,12.71993 127.93404,3.2839 103.22417,3.2839 c -57.48883,0 -98.1062,51.04141 -98.1062,110.62704 0,26.31091 7.95874,50.74756 21.77724,69.83903 L 0,213.79896 15.09161,226.77165 40.16607,198.75653 c 16.63577,15.39854 38.30451,24.73122 63.0581,24.73122 57.30772,0 98.10621,-49.99117 98.10621,-109.57681 0,-26.4831 -8.02913,-51.27319 -21.99139,-70.64949 L 206.44835,12.9727 Z m -88.13257,29.14527 c 18.05149,0 33.82814,6.61207 45.99616,17.93288 L 44.23073,164.38058 c -8.47133,-13.77454 -13.25241,-31.0791 -13.25241,-50.46964 0,-48.32633 29.85757,-84.76566 72.24585,-84.76567 z m 58.71679,33.55421 c 8.63456,14.03778 13.52804,31.65021 13.52804,51.21146 0,48.32634 -29.67543,83.71544 -72.24483,83.71544 -18.20789,0 -34.05365,-6.47881 -46.23079,-17.67058 z" />
</svg>
